<?xml version="1.0" encoding="utf-8"?>
<!-- Generator: Adobe Illustrator 19.2.1, SVG Export Plug-In . SVG Version: 6.00 Build 0)  -->
<svg version="1.1" id="Layer_1" xmlns="http://www.w3.org/2000/svg" xmlns:xlink="http://www.w3.org/1999/xlink" x="0px" y="0px"
	 viewBox="0 0 11 11" style="enable-background:new 0 0 11 11;" xml:space="preserve">
<g>
	<path d="M10.1,1c0.2,0,0.3,0.1,0.5,0.2s0.2,0.3,0.2,0.5v7.7c0,0.2-0.1,0.3-0.2,0.5S10.3,10,10.1,10H0.9c-0.2,0-0.3-0.1-0.5-0.2
		S0.2,9.5,0.2,9.3V1.7c0-0.2,0.1-0.3,0.2-0.5S0.7,1,0.9,1H10.1z M7.7,5.6L10,8.1V2c0-0.2-0.1-0.3-0.3-0.3H1.3C1.1,1.8,1,1.8,1,2v6.1
		l3-3.6c0.1-0.1,0.3-0.2,0.4-0.2c0.2,0,0.3,0.1,0.4,0.2L6,5.9L6.1,6c0.1,0.1,0.2,0.1,0.3,0.1s0.2,0,0.3-0.1l0.4-0.4
		c0.1-0.1,0.2-0.1,0.3-0.1C7.5,5.5,7.6,5.5,7.7,5.6z M8.9,4.4C8.7,4.6,8.4,4.8,8.1,4.8S7.5,4.6,7.3,4.4S7,3.9,7,3.6S7.1,3,7.3,2.8
		s0.5-0.3,0.8-0.3s0.6,0.1,0.8,0.3s0.3,0.5,0.3,0.8S9.1,4.2,8.9,4.4z"/>
</g>
</svg>
