<?xml version="1.0" encoding="utf-8"?>
<!-- Generator: Adobe Illustrator 19.2.1, SVG Export Plug-In . SVG Version: 6.00 Build 0)  -->
<svg version="1.1" id="Layer_1" xmlns="http://www.w3.org/2000/svg" xmlns:xlink="http://www.w3.org/1999/xlink" x="0px" y="0px"
	 viewBox="0 0 11 11" style="enable-background:new 0 0 11 11;" xml:space="preserve">
<g>
	<path d="M2.9,1.3c0.7-0.7,1.6-1.1,2.6-1.1s1.9,0.4,2.6,1.1s1.1,1.6,1.1,2.6c0,0.8-0.3,1.8-0.9,2.9S7.1,8.9,6.4,9.7l-0.9,1.1
		c-0.1-0.1-0.2-0.3-0.4-0.5S4.6,9.7,4.2,9.2S3.4,8,3.1,7.5S2.4,6.4,2.2,5.7S1.8,4.4,1.8,3.9C1.8,2.9,2.1,2,2.9,1.3z M4.6,4.9
		c0.3,0.3,0.6,0.4,0.9,0.4s0.7-0.1,0.9-0.4s0.4-0.6,0.4-0.9S6.7,3.3,6.4,3S5.9,2.6,5.5,2.6S4.8,2.7,4.6,3S4.2,3.6,4.2,3.9
		S4.3,4.6,4.6,4.9z"/>
</g>
</svg>
